Filename:
Robin Hood 2010 TS XViD - IMAGiNE
 
http://www.imdb.com/title/tt0955308/

DETAILS:

Video
Format                           : MPEG-4 Visual
Format profile                   : Streaming Video@L1
Format settings, BVOP            : Yes
Format settings, QPel            : No
Format settings, GMC             : No warppoints
Format settings, Matrix          : Default
Muxing mode                      : Packed bitstream
Codec ID                         : XVID
Codec ID/Hint                    : XviD
Duration                         : 2h 11mn
Bit rate                         : 1 356 Kbps
Width                            : 720 pixels
Height                           : 304 pixels
Display aspect ratio             : 2.35
Frame rate                       : 23.976 fps
Resolution                       : 24 bits
Colorimetry                      : 4:2:0
Scan type                        : Progressive
Bits/(Pixel*Frame)               : 0.258
Stream size                      : 1.25 GiB (91%)
Writing library                  : XviD 50

Audio
Format                           : MPEG Audio
Format version                   : Version 1
Format profile                   : Layer 3
Codec ID                         : 55
Codec ID/Hint                    : MP3
Duration                         : 2h 11mn
Bit rate mode                    : Constant
Bit rate                         : 128 Kbps
Channel(s)                       : 2 channels
Sampling rate                    : 44.1 KHz
Resolution                       : 16 bits
Stream size                      : 120 MiB (9%)
Alignment                        : Split accross interleaves
Interleave, duration             : 42 ms (1.00 video frame)
Interleave, preload duration     : 500 ms

NOTES:

IMAGiNE bringing you another release..... Robin Hood 2010

First off many thanks to ELEKTRI4KA for the video source and PrisM for the line audio... Thanks both
We know this is a bit late, but we wanted to release this to those that may be waiting on it
Just a quick note on this... This is an okay video source, it has some spots that are dark and
light so be warned. Audio is nice so did not need to do anything but fix the sync issues with it.
It lasted for around 1:45 minutes. Also had to change the AR from 2.2:1 to 2.35:1